%TF.GenerationSoftware,KiCad,Pcbnew,9.0.0*%
%TF.CreationDate,2025-04-09T12:13:31+05:30*%
%TF.ProjectId,iot-waterpump,696f742d-7761-4746-9572-70756d702e6b,rev?*%
%TF.SameCoordinates,Original*%
%TF.FileFunction,Soldermask,Top*%
%TF.FilePolarity,Negative*%
%FSLAX46Y46*%
G04 Gerber Fmt 4.6, Leading zero omitted, Abs format (unit mm)*
G04 Created by KiCad (PCBNEW 9.0.0) date 2025-04-09 12:13:31*
%MOMM*%
%LPD*%
G01*
G04 APERTURE LIST*
%ADD10O,1.700000X1.700000*%
%ADD11R,1.700000X1.700000*%
%ADD12O,1.400000X1.400000*%
%ADD13C,1.400000*%
%ADD14R,1.000000X0.650000*%
%ADD15R,3.400000X4.300000*%
%ADD16R,1.000000X1.500000*%
%ADD17R,1.100000X1.300000*%
%ADD18C,2.540000*%
%ADD19R,2.540000X2.540000*%
%ADD20C,3.000000*%
%ADD21C,0.600000*%
%ADD22R,2.900000X2.900000*%
%ADD23R,1.500000X0.900000*%
G04 APERTURE END LIST*
D10*
%TO.C,U2*%
X229500000Y-102320000D03*
X229500000Y-99780000D03*
X229500000Y-97240000D03*
D11*
X229500000Y-94700000D03*
%TD*%
D12*
%TO.C,R3*%
X219900000Y-97500000D03*
D13*
X218000000Y-97500000D03*
%TD*%
D12*
%TO.C,R2*%
X212495000Y-85500000D03*
D13*
X210595000Y-85500000D03*
%TD*%
D14*
%TO.C,M1*%
X229950000Y-119520000D03*
D15*
X229150000Y-117045000D03*
D16*
X229150000Y-114145000D03*
D14*
X228350000Y-119520000D03*
D17*
X230800000Y-113645000D03*
X227500000Y-113645000D03*
%TD*%
D18*
%TO.C,K1*%
X170680000Y-123000000D03*
D19*
X178300000Y-123000000D03*
D20*
X170680000Y-99060000D03*
X178300000Y-104100000D03*
%TD*%
D13*
%TO.C,J1*%
X196000000Y-93000000D03*
%TD*%
D21*
%TO.C,U1*%
X203060000Y-120350000D03*
X203060000Y-119250000D03*
X202510000Y-120900000D03*
X202510000Y-119800000D03*
X202510000Y-118700000D03*
X201960000Y-120350000D03*
D22*
X201960000Y-119800000D03*
D21*
X201960000Y-119250000D03*
X201410000Y-120900000D03*
X201410000Y-119800000D03*
X201410000Y-118700000D03*
X200860000Y-120350000D03*
X200860000Y-119250000D03*
D23*
X209750000Y-113600000D03*
X209750000Y-115100000D03*
X209750000Y-116600000D03*
X209750000Y-118100000D03*
X209750000Y-119600000D03*
X209750000Y-121100000D03*
X209750000Y-122600000D03*
X209750000Y-124100000D03*
X209750000Y-125600000D03*
X192250000Y-125600000D03*
X192250000Y-124100000D03*
X192250000Y-122600000D03*
X192250000Y-121100000D03*
X192250000Y-119600000D03*
X192250000Y-118100000D03*
X192250000Y-116600000D03*
X192250000Y-115100000D03*
X192250000Y-113600000D03*
%TD*%
M02*
