%TF.GenerationSoftware,KiCad,Pcbnew,9.0.0*%
%TF.CreationDate,2025-04-09T12:13:31+05:30*%
%TF.ProjectId,iot-waterpump,696f742d-7761-4746-9572-70756d702e6b,rev?*%
%TF.SameCoordinates,Original*%
%TF.FileFunction,Copper,L1,Top*%
%TF.FilePolarity,Positive*%
%FSLAX46Y46*%
G04 Gerber Fmt 4.6, Leading zero omitted, Abs format (unit mm)*
G04 Created by KiCad (PCBNEW 9.0.0) date 2025-04-09 12:13:31*
%MOMM*%
%LPD*%
G01*
G04 APERTURE LIST*
%TA.AperFunction,ComponentPad*%
%ADD10O,1.700000X1.700000*%
%TD*%
%TA.AperFunction,ComponentPad*%
%ADD11R,1.700000X1.700000*%
%TD*%
%TA.AperFunction,ComponentPad*%
%ADD12O,1.400000X1.400000*%
%TD*%
%TA.AperFunction,ComponentPad*%
%ADD13C,1.400000*%
%TD*%
%TA.AperFunction,SMDPad,CuDef*%
%ADD14R,1.000000X0.650000*%
%TD*%
%TA.AperFunction,SMDPad,CuDef*%
%ADD15R,3.400000X4.300000*%
%TD*%
%TA.AperFunction,SMDPad,CuDef*%
%ADD16R,1.000000X1.500000*%
%TD*%
%TA.AperFunction,SMDPad,CuDef*%
%ADD17R,1.100000X1.300000*%
%TD*%
%TA.AperFunction,ComponentPad*%
%ADD18C,2.540000*%
%TD*%
%TA.AperFunction,ComponentPad*%
%ADD19R,2.540000X2.540000*%
%TD*%
%TA.AperFunction,ComponentPad*%
%ADD20C,3.000000*%
%TD*%
%TA.AperFunction,HeatsinkPad*%
%ADD21C,0.600000*%
%TD*%
%TA.AperFunction,HeatsinkPad*%
%ADD22R,2.900000X2.900000*%
%TD*%
%TA.AperFunction,SMDPad,CuDef*%
%ADD23R,1.500000X0.900000*%
%TD*%
%TA.AperFunction,Conductor*%
%ADD24C,0.200000*%
%TD*%
G04 APERTURE END LIST*
D10*
%TO.P,U2,4,GND*%
%TO.N,Net-(J1-Pin_2)*%
X229500000Y-102320000D03*
%TO.P,U2,3,ECHO*%
%TO.N,Net-(U2-ECHO)*%
X229500000Y-99780000D03*
%TO.P,U2,2,TRIG*%
%TO.N,Net-(U1-IO4)*%
X229500000Y-97240000D03*
D11*
%TO.P,U2,1,VCC*%
%TO.N,+5V*%
X229500000Y-94700000D03*
%TD*%
D12*
%TO.P,R3,2*%
%TO.N,Net-(U1-IO5)*%
X219900000Y-97500000D03*
D13*
%TO.P,R3,1*%
%TO.N,Net-(U2-ECHO)*%
X218000000Y-97500000D03*
%TD*%
D12*
%TO.P,R2,2*%
%TO.N,Net-(U2-ECHO)*%
X212495000Y-85500000D03*
D13*
%TO.P,R2,1*%
%TO.N,Net-(J1-Pin_2)*%
X210595000Y-85500000D03*
%TD*%
D14*
%TO.P,M1,SH*%
%TO.N,N/C*%
X229950000Y-119520000D03*
D15*
X229150000Y-117045000D03*
D16*
X229150000Y-114145000D03*
D14*
X228350000Y-119520000D03*
D17*
%TO.P,M1,2,-*%
%TO.N,Net-(J1-Pin_2)*%
X230800000Y-113645000D03*
%TO.P,M1,1,+*%
%TO.N,Net-(M1-+)*%
X227500000Y-113645000D03*
%TD*%
D18*
%TO.P,K1,A2*%
%TO.N,Net-(J1-Pin_2)*%
X170680000Y-123000000D03*
D19*
%TO.P,K1,A1*%
%TO.N,+5V*%
X178300000Y-123000000D03*
D20*
%TO.P,K1,14*%
%TO.N,unconnected-(K1-Pad14)*%
X170680000Y-99060000D03*
%TO.P,K1,11*%
%TO.N,Net-(M1-+)*%
X178300000Y-104100000D03*
%TD*%
D13*
%TO.P,J1,1,Pin_1*%
%TO.N,+5V*%
X196000000Y-93000000D03*
%TD*%
D21*
%TO.P,U1,19,GND*%
%TO.N,Net-(J1-Pin_2)*%
X203060000Y-120350000D03*
X203060000Y-119250000D03*
X202510000Y-120900000D03*
X202510000Y-119800000D03*
X202510000Y-118700000D03*
X201960000Y-120350000D03*
D22*
X201960000Y-119800000D03*
D21*
X201960000Y-119250000D03*
X201410000Y-120900000D03*
X201410000Y-119800000D03*
X201410000Y-118700000D03*
X200860000Y-120350000D03*
X200860000Y-119250000D03*
D23*
%TO.P,U1,18,IO0*%
%TO.N,unconnected-(U1-IO0-Pad18)*%
X209750000Y-113600000D03*
%TO.P,U1,17,IO1*%
%TO.N,unconnected-(U1-IO1-Pad17)*%
X209750000Y-115100000D03*
%TO.P,U1,16,IO2*%
%TO.N,unconnected-(U1-IO2-Pad16)*%
X209750000Y-116600000D03*
%TO.P,U1,15,IO3*%
%TO.N,unconnected-(U1-IO3-Pad15)*%
X209750000Y-118100000D03*
%TO.P,U1,14,IO19*%
%TO.N,unconnected-(U1-IO19-Pad14)*%
X209750000Y-119600000D03*
%TO.P,U1,13,IO18*%
%TO.N,unconnected-(U1-IO18-Pad13)*%
X209750000Y-121100000D03*
%TO.P,U1,12,IO21/TXD*%
%TO.N,unconnected-(U1-IO21{slash}TXD-Pad12)*%
X209750000Y-122600000D03*
%TO.P,U1,11,IO20/RXD*%
%TO.N,unconnected-(U1-IO20{slash}RXD-Pad11)*%
X209750000Y-124100000D03*
%TO.P,U1,10,IO10*%
%TO.N,unconnected-(U1-IO10-Pad10)*%
X209750000Y-125600000D03*
%TO.P,U1,9,GND*%
%TO.N,Net-(J1-Pin_2)*%
X192250000Y-125600000D03*
%TO.P,U1,8,IO9*%
%TO.N,unconnected-(U1-IO9-Pad8)*%
X192250000Y-124100000D03*
%TO.P,U1,7,IO8*%
%TO.N,unconnected-(U1-IO8-Pad7)*%
X192250000Y-122600000D03*
%TO.P,U1,6,IO7*%
%TO.N,unconnected-(U1-IO7-Pad6)*%
X192250000Y-121100000D03*
%TO.P,U1,5,IO6*%
%TO.N,unconnected-(U1-IO6-Pad5)*%
X192250000Y-119600000D03*
%TO.P,U1,4,IO5*%
%TO.N,Net-(U1-IO5)*%
X192250000Y-118100000D03*
%TO.P,U1,3,IO4*%
%TO.N,Net-(U1-IO4)*%
X192250000Y-116600000D03*
%TO.P,U1,2,EN*%
%TO.N,unconnected-(U1-EN-Pad2)*%
X192250000Y-115100000D03*
%TO.P,U1,1,3V3*%
%TO.N,unconnected-(U1-3V3-Pad1)*%
X192250000Y-113600000D03*
%TD*%
D24*
%TO.N,Net-(M1-+)*%
X185901000Y-96499000D02*
X178300000Y-104100000D01*
X227500000Y-102991372D02*
X221007628Y-96499000D01*
X227500000Y-113645000D02*
X227500000Y-102991372D01*
X221007628Y-96499000D02*
X185901000Y-96499000D01*
%TO.N,Net-(U1-IO5)*%
X219900000Y-107742836D02*
X219900000Y-97500000D01*
X215041836Y-112601000D02*
X219900000Y-107742836D01*
X192550000Y-118100000D02*
X198049000Y-112601000D01*
X198049000Y-112601000D02*
X215041836Y-112601000D01*
X192250000Y-118100000D02*
X192550000Y-118100000D01*
%TO.N,Net-(U1-IO4)*%
X191199000Y-117349000D02*
X191948000Y-116600000D01*
X225113100Y-126351000D02*
X191199000Y-126351000D01*
X231651000Y-119813100D02*
X225113100Y-126351000D01*
X191948000Y-116600000D02*
X192250000Y-116600000D01*
X231651000Y-99391000D02*
X231651000Y-119813100D01*
X229500000Y-97240000D02*
X231651000Y-99391000D01*
X191199000Y-126351000D02*
X191199000Y-117349000D01*
%TO.N,Net-(J1-Pin_2)*%
X231151000Y-103971000D02*
X229500000Y-102320000D01*
X231151000Y-119746000D02*
X231151000Y-103971000D01*
X230547000Y-120350000D02*
X231151000Y-119746000D01*
X203060000Y-120350000D02*
X230547000Y-120350000D01*
X195610000Y-125600000D02*
X200860000Y-120350000D01*
X192250000Y-125600000D02*
X195610000Y-125600000D01*
X230800000Y-103620000D02*
X229500000Y-102320000D01*
X230800000Y-113645000D02*
X230800000Y-103620000D01*
%TD*%
M02*
