%TF.GenerationSoftware,KiCad,Pcbnew,9.0.0*%
%TF.CreationDate,2025-04-09T12:13:31+05:30*%
%TF.ProjectId,iot-waterpump,696f742d-7761-4746-9572-70756d702e6b,rev?*%
%TF.SameCoordinates,Original*%
%TF.FileFunction,Legend,Top*%
%TF.FilePolarity,Positive*%
%FSLAX46Y46*%
G04 Gerber Fmt 4.6, Leading zero omitted, Abs format (unit mm)*
G04 Created by KiCad (PCBNEW 9.0.0) date 2025-04-09 12:13:31*
%MOMM*%
%LPD*%
G01*
G04 APERTURE LIST*
%ADD10C,0.150000*%
%ADD11C,0.120000*%
G04 APERTURE END LIST*
D10*
X228738095Y-91824819D02*
X228738095Y-92634342D01*
X228738095Y-92634342D02*
X228785714Y-92729580D01*
X228785714Y-92729580D02*
X228833333Y-92777200D01*
X228833333Y-92777200D02*
X228928571Y-92824819D01*
X228928571Y-92824819D02*
X229119047Y-92824819D01*
X229119047Y-92824819D02*
X229214285Y-92777200D01*
X229214285Y-92777200D02*
X229261904Y-92729580D01*
X229261904Y-92729580D02*
X229309523Y-92634342D01*
X229309523Y-92634342D02*
X229309523Y-91824819D01*
X229738095Y-91920057D02*
X229785714Y-91872438D01*
X229785714Y-91872438D02*
X229880952Y-91824819D01*
X229880952Y-91824819D02*
X230119047Y-91824819D01*
X230119047Y-91824819D02*
X230214285Y-91872438D01*
X230214285Y-91872438D02*
X230261904Y-91920057D01*
X230261904Y-91920057D02*
X230309523Y-92015295D01*
X230309523Y-92015295D02*
X230309523Y-92110533D01*
X230309523Y-92110533D02*
X230261904Y-92253390D01*
X230261904Y-92253390D02*
X229690476Y-92824819D01*
X229690476Y-92824819D02*
X230309523Y-92824819D01*
X218783333Y-96034819D02*
X218450000Y-95558628D01*
X218211905Y-96034819D02*
X218211905Y-95034819D01*
X218211905Y-95034819D02*
X218592857Y-95034819D01*
X218592857Y-95034819D02*
X218688095Y-95082438D01*
X218688095Y-95082438D02*
X218735714Y-95130057D01*
X218735714Y-95130057D02*
X218783333Y-95225295D01*
X218783333Y-95225295D02*
X218783333Y-95368152D01*
X218783333Y-95368152D02*
X218735714Y-95463390D01*
X218735714Y-95463390D02*
X218688095Y-95511009D01*
X218688095Y-95511009D02*
X218592857Y-95558628D01*
X218592857Y-95558628D02*
X218211905Y-95558628D01*
X219116667Y-95034819D02*
X219735714Y-95034819D01*
X219735714Y-95034819D02*
X219402381Y-95415771D01*
X219402381Y-95415771D02*
X219545238Y-95415771D01*
X219545238Y-95415771D02*
X219640476Y-95463390D01*
X219640476Y-95463390D02*
X219688095Y-95511009D01*
X219688095Y-95511009D02*
X219735714Y-95606247D01*
X219735714Y-95606247D02*
X219735714Y-95844342D01*
X219735714Y-95844342D02*
X219688095Y-95939580D01*
X219688095Y-95939580D02*
X219640476Y-95987200D01*
X219640476Y-95987200D02*
X219545238Y-96034819D01*
X219545238Y-96034819D02*
X219259524Y-96034819D01*
X219259524Y-96034819D02*
X219164286Y-95987200D01*
X219164286Y-95987200D02*
X219116667Y-95939580D01*
X211378333Y-84034819D02*
X211045000Y-83558628D01*
X210806905Y-84034819D02*
X210806905Y-83034819D01*
X210806905Y-83034819D02*
X211187857Y-83034819D01*
X211187857Y-83034819D02*
X211283095Y-83082438D01*
X211283095Y-83082438D02*
X211330714Y-83130057D01*
X211330714Y-83130057D02*
X211378333Y-83225295D01*
X211378333Y-83225295D02*
X211378333Y-83368152D01*
X211378333Y-83368152D02*
X211330714Y-83463390D01*
X211330714Y-83463390D02*
X211283095Y-83511009D01*
X211283095Y-83511009D02*
X211187857Y-83558628D01*
X211187857Y-83558628D02*
X210806905Y-83558628D01*
X211759286Y-83130057D02*
X211806905Y-83082438D01*
X211806905Y-83082438D02*
X211902143Y-83034819D01*
X211902143Y-83034819D02*
X212140238Y-83034819D01*
X212140238Y-83034819D02*
X212235476Y-83082438D01*
X212235476Y-83082438D02*
X212283095Y-83130057D01*
X212283095Y-83130057D02*
X212330714Y-83225295D01*
X212330714Y-83225295D02*
X212330714Y-83320533D01*
X212330714Y-83320533D02*
X212283095Y-83463390D01*
X212283095Y-83463390D02*
X211711667Y-84034819D01*
X211711667Y-84034819D02*
X212330714Y-84034819D01*
X228340476Y-111949819D02*
X228340476Y-110949819D01*
X228340476Y-110949819D02*
X228673809Y-111664104D01*
X228673809Y-111664104D02*
X229007142Y-110949819D01*
X229007142Y-110949819D02*
X229007142Y-111949819D01*
X230007142Y-111949819D02*
X229435714Y-111949819D01*
X229721428Y-111949819D02*
X229721428Y-110949819D01*
X229721428Y-110949819D02*
X229626190Y-111092676D01*
X229626190Y-111092676D02*
X229530952Y-111187914D01*
X229530952Y-111187914D02*
X229435714Y-111235533D01*
X168634819Y-112838094D02*
X167634819Y-112838094D01*
X168634819Y-112266666D02*
X168063390Y-112695237D01*
X167634819Y-112266666D02*
X168206247Y-112838094D01*
X168634819Y-111314285D02*
X168634819Y-111885713D01*
X168634819Y-111599999D02*
X167634819Y-111599999D01*
X167634819Y-111599999D02*
X167777676Y-111695237D01*
X167777676Y-111695237D02*
X167872914Y-111790475D01*
X167872914Y-111790475D02*
X167920533Y-111885713D01*
X195666666Y-94254819D02*
X195666666Y-94969104D01*
X195666666Y-94969104D02*
X195619047Y-95111961D01*
X195619047Y-95111961D02*
X195523809Y-95207200D01*
X195523809Y-95207200D02*
X195380952Y-95254819D01*
X195380952Y-95254819D02*
X195285714Y-95254819D01*
X196666666Y-95254819D02*
X196095238Y-95254819D01*
X196380952Y-95254819D02*
X196380952Y-94254819D01*
X196380952Y-94254819D02*
X196285714Y-94397676D01*
X196285714Y-94397676D02*
X196190476Y-94492914D01*
X196190476Y-94492914D02*
X196095238Y-94540533D01*
X189954819Y-125491904D02*
X190764342Y-125491904D01*
X190764342Y-125491904D02*
X190859580Y-125444285D01*
X190859580Y-125444285D02*
X190907200Y-125396666D01*
X190907200Y-125396666D02*
X190954819Y-125301428D01*
X190954819Y-125301428D02*
X190954819Y-125110952D01*
X190954819Y-125110952D02*
X190907200Y-125015714D01*
X190907200Y-125015714D02*
X190859580Y-124968095D01*
X190859580Y-124968095D02*
X190764342Y-124920476D01*
X190764342Y-124920476D02*
X189954819Y-124920476D01*
X190954819Y-123920476D02*
X190954819Y-124491904D01*
X190954819Y-124206190D02*
X189954819Y-124206190D01*
X189954819Y-124206190D02*
X190097676Y-124301428D01*
X190097676Y-124301428D02*
X190192914Y-124396666D01*
X190192914Y-124396666D02*
X190240533Y-124491904D01*
D11*
%TO.C,U2*%
X230830000Y-95970000D02*
X230830000Y-103650000D01*
X228170000Y-103650000D02*
X230830000Y-103650000D01*
X228170000Y-95970000D02*
X230830000Y-95970000D01*
X228170000Y-95970000D02*
X228170000Y-103650000D01*
X228170000Y-94700000D02*
X228170000Y-93370000D01*
X228170000Y-93370000D02*
X229500000Y-93370000D01*
%TO.C,R3*%
X218320095Y-98249359D02*
G75*
G02*
X218417133Y-96800000I-320095J749359D01*
G01*
%TO.C,R2*%
X210915095Y-86249359D02*
G75*
G02*
X211012133Y-84800000I-320095J749359D01*
G01*
%TO.C,M1*%
X231550000Y-123595000D02*
X226750000Y-123595000D01*
X231550000Y-120295000D02*
X231550000Y-123595000D01*
X231550000Y-119695000D02*
X230550000Y-119695000D01*
X231550000Y-112795000D02*
X231550000Y-119695000D01*
X231550000Y-112445000D02*
X231550000Y-112795000D01*
X230550000Y-120295000D02*
X231550000Y-120295000D01*
X230550000Y-119695000D02*
X230550000Y-120295000D01*
X230200000Y-112445000D02*
X231550000Y-112445000D01*
X230200000Y-112395000D02*
X230200000Y-112445000D01*
X228100000Y-112445000D02*
X228100000Y-112395000D01*
X228100000Y-112395000D02*
X230200000Y-112395000D01*
X227750000Y-120295000D02*
X227750000Y-119695000D01*
X227750000Y-119695000D02*
X226750000Y-119695000D01*
X226750000Y-123595000D02*
X226750000Y-120295000D01*
X226750000Y-120295000D02*
X227750000Y-120295000D01*
X226750000Y-119695000D02*
X226750000Y-112795000D01*
X226750000Y-112795000D02*
X226750000Y-112445000D01*
X226750000Y-112445000D02*
X228100000Y-112445000D01*
%TO.C,K1*%
X171400000Y-97500000D02*
X179800000Y-97500000D01*
X169200000Y-97500000D02*
X170000000Y-97500000D01*
X179800000Y-97550000D02*
X179800000Y-103300000D01*
X169200000Y-98250000D02*
X169200000Y-97500000D01*
X179800000Y-104900000D02*
X179800000Y-126500000D01*
X177030000Y-117920000D02*
X177030000Y-120460000D01*
X171950000Y-117920000D02*
X177030000Y-117920000D01*
X178300000Y-119190000D02*
X178300000Y-120460000D01*
X177030000Y-119190000D02*
X178300000Y-119190000D01*
X171950000Y-119190000D02*
X171950000Y-117920000D01*
X170680000Y-119190000D02*
X171950000Y-119190000D01*
X177030000Y-120460000D02*
X171950000Y-120460000D01*
X173220000Y-120460000D02*
X174490000Y-117920000D01*
X171950000Y-120460000D02*
X171950000Y-119190000D01*
X170680000Y-120460000D02*
X170680000Y-119190000D01*
X180000000Y-124750000D02*
X180000000Y-126700000D01*
X179800000Y-126500000D02*
X169200000Y-126500000D01*
X169200000Y-126500000D02*
X169200000Y-99900000D01*
X180000000Y-126700000D02*
X178100000Y-126700000D01*
%TO.C,J1*%
X196900000Y-93950000D02*
X196900000Y-92100000D01*
X196900000Y-92100000D02*
X196900000Y-92050000D01*
X196900000Y-92050000D02*
X195050000Y-92050000D01*
X195050000Y-93950000D02*
X196900000Y-93950000D01*
X195050000Y-92050000D02*
X195050000Y-93950000D01*
%TO.C,U1*%
X191900000Y-112900000D02*
X191400000Y-112900000D01*
X191900000Y-112400000D01*
X191900000Y-112900000D01*
G36*
X191900000Y-112900000D02*
G01*
X191400000Y-112900000D01*
X191900000Y-112400000D01*
X191900000Y-112900000D01*
G37*
X210110000Y-126310000D02*
X210110000Y-126610000D01*
X210110000Y-106390000D02*
X210110000Y-112890000D01*
X191890000Y-126610000D02*
X210110000Y-126610000D01*
X191890000Y-126310000D02*
X191890000Y-126610000D01*
X191890000Y-106390000D02*
X210110000Y-106390000D01*
X191890000Y-106390000D02*
X191890000Y-112200000D01*
%TD*%
M02*
