M48
; DRILL file {KiCad 9.0.0} date 2025-04-09T12:20:00+0530
; FORMAT={-:-/ absolute / metric / decimal}
; #@! TF.CreationDate,2025-04-09T12:20:00+05:30
; #@! TF.GenerationSoftware,Kicad,Pcbnew,9.0.0
; #@! TF.FileFunction,Plated,1,2,PTH
FMAT,2
METRIC
; #@! TA.AperFunction,Plated,PTH,ComponentDrill
T1C0.200
; #@! TA.AperFunction,Plated,PTH,ComponentDrill
T2C0.700
; #@! TA.AperFunction,Plated,PTH,ComponentDrill
T3C1.000
; #@! TA.AperFunction,Plated,PTH,ComponentDrill
T4C1.300
%
G90
G05
T1
X200.86Y-119.25
X200.86Y-120.35
X201.41Y-118.7
X201.41Y-119.8
X201.41Y-120.9
X201.96Y-119.25
X201.96Y-120.35
X202.51Y-118.7
X202.51Y-119.8
X202.51Y-120.9
X203.06Y-119.25
X203.06Y-120.35
T2
X196.0Y-93.0
X210.595Y-85.5
X212.495Y-85.5
X218.0Y-97.5
X219.9Y-97.5
T3
X229.5Y-94.7
X229.5Y-97.24
X229.5Y-99.78
X229.5Y-102.32
T4
X170.68Y-99.06
X170.68Y-123.0
X178.3Y-104.1
X178.3Y-123.0
M30
